<svg width="34" height="42" viewBox="0 0 34 42" fill="none" xmlns="http://www.w3.org/2000/svg">
<path d="M16.9999 41.3125C19.2916 41.3125 21.1666 39.4375 21.1666 37.1458H12.8333C12.8333 39.4375 14.7083 41.3125 16.9999 41.3125ZM29.4999 28.8125V18.3958C29.4999 12 26.1041 6.64583 20.1249 5.22917V3.8125C20.1249 2.08333 18.7291 0.6875 16.9999 0.6875C15.2708 0.6875 13.8749 2.08333 13.8749 3.8125V5.22917C7.91659 6.64583 4.49992 11.9792 4.49992 18.3958V28.8125L0.333252 32.9792V35.0625H33.6666V32.9792L29.4999 28.8125ZM25.3333 30.8958H8.66659V18.3958C8.66659 13.2292 11.8124 9.02083 16.9999 9.02083C22.1874 9.02083 25.3333 13.2292 25.3333 18.3958V30.8958Z" fill="#401A0A"/>
</svg>
