<svg width="18" height="16" viewBox="0 0 18 16" fill="none" xmlns="http://www.w3.org/2000/svg">
<path d="M15.75 0.875H2.25C1.425 0.875 0.75 1.5501 0.75 2.37523V8.37614H2.25V2.37523H15.75V14.3771C16.575 14.3771 17.25 13.7019 17.25 12.8768V2.37523C17.25 1.5501 16.575 0.875 15.75 0.875Z" fill="white"/>
<path d="M9.75 6.1258C9.75 4.46805 8.4075 3.12534 6.75 3.12534C5.0925 3.12534 3.75 4.46805 3.75 6.1258C3.75 7.78355 5.0925 9.12625 6.75 9.12625C8.4075 9.12625 9.75 7.78355 9.75 6.1258ZM5.25 6.1258C5.25 5.30067 5.925 4.62557 6.75 4.62557C7.575 4.62557 8.25 5.30067 8.25 6.1258C8.25 6.95092 7.575 7.62603 6.75 7.62603C5.925 7.62603 5.25 6.95092 5.25 6.1258Z" fill="white"/>
<path d="M11.5425 11.0465C10.2825 10.4014 8.6475 9.87637 6.75 9.87637C4.8525 9.87637 3.2175 10.4014 1.9575 11.0465C1.2075 11.4291 0.75 12.2017 0.75 13.0418V15.1272H12.75V13.0418C12.75 12.2017 12.2925 11.4291 11.5425 11.0465ZM11.25 13.6269H2.25C2.25 13.0869 2.175 12.6218 2.64 12.3817C3.5325 11.9242 4.9725 11.3766 6.75 11.3766C8.5275 11.3766 9.9675 11.9242 10.86 12.3817C11.3325 12.6218 11.25 13.0944 11.25 13.6269Z" fill="white"/>
</svg>
