<svg width="16" height="14" viewBox="0 0 16 14" fill="none" xmlns="http://www.w3.org/2000/svg">
<path d="M15.5 0.25L14.2475 1.50269L13.0025 0.25L11.75 1.50269L10.4975 0.25L9.2525 1.50269L8 0.25L6.7475 1.50269L5.5025 0.25L4.25 1.50269L2.9975 0.25L1.7525 1.50269L0.5 0.25V12.2518C0.5 13.0769 1.175 13.7521 2 13.7521H14C14.825 13.7521 15.5 13.0769 15.5 12.2518V0.25ZM7.25 12.2518H2V7.75114H7.25V12.2518ZM14 12.2518H8.75V10.7516H14V12.2518ZM14 9.25137H8.75V7.75114H14V9.25137ZM14 6.25091H2V4.00057H14V6.25091Z" fill="white"/>
</svg>
