<svg width="18" height="10" viewBox="0 0 18 10" fill="none" xmlns="http://www.w3.org/2000/svg">
<path d="M17.25 2.0012C17.25 2.82633 16.575 3.50143 15.75 3.50143C15.615 3.50143 15.4875 3.48643 15.3675 3.44892L12.6975 6.11183C12.735 6.23185 12.75 6.36687 12.75 6.50189C12.75 7.32701 12.075 8.00212 11.25 8.00212C10.425 8.00212 9.75 7.32701 9.75 6.50189C9.75 6.36687 9.765 6.23185 9.8025 6.11183L7.89 4.19904C7.77 4.23654 7.635 4.25155 7.5 4.25155C7.365 4.25155 7.23 4.23654 7.11 4.19904L3.6975 7.61956C3.735 7.73958 3.75 7.8671 3.75 8.00212C3.75 8.82724 3.075 9.50234 2.25 9.50234C1.425 9.50234 0.75 8.82724 0.75 8.00212C0.75 7.17699 1.425 6.50189 2.25 6.50189C2.385 6.50189 2.5125 6.51689 2.6325 6.5544L6.0525 3.14138C6.015 3.02136 6 2.88634 6 2.75132C6 1.92619 6.675 1.25109 7.5 1.25109C8.325 1.25109 9 1.92619 9 2.75132C9 2.88634 8.985 3.02136 8.9475 3.14138L10.86 5.05417C10.98 5.01666 11.115 5.00166 11.25 5.00166C11.385 5.00166 11.52 5.01666 11.64 5.05417L14.3025 2.38376C14.265 2.26374 14.25 2.13622 14.25 2.0012C14.25 1.17608 14.925 0.500977 15.75 0.500977C16.575 0.500977 17.25 1.17608 17.25 2.0012Z" fill="white"/>
</svg>
